<svg version="1.1" xmlns="http://www.w3.org/2000/svg" xmlns:xlink="http://www.w3.org/1999/xlink" viewBox="0 0 172 172"><g fill="none" fill-rule="nonzero" stroke="none" stroke-width="1" stroke-linecap="butt" stroke-linejoin="miter" stroke-miterlimit="10" stroke-dasharray="" stroke-dashoffset="0" font-family="none" font-weight="none" font-size="none" text-anchor="none" style="mix-blend-mode: normal"><path d="M0,172v-172h172v172z" fill="none"></path><g fill="#2982fb"><g id="surface1"><path d="M46.30769,0c-3.64363,0 -6.61538,2.97176 -6.61538,6.61538v19.84615c0,3.64363 2.97176,6.61538 6.61538,6.61538c3.64363,0 6.61538,-2.97176 6.61538,-6.61538v-19.84615c0,-3.64363 -2.97176,-6.61538 -6.61538,-6.61538zM125.69231,0c-3.64363,0 -6.61538,2.97176 -6.61538,6.61538v19.84615c0,3.64363 2.97176,6.61538 6.61538,6.61538c3.64363,0 6.61538,-2.97176 6.61538,-6.61538v-19.84615c0,-3.64363 -2.97176,-6.61538 -6.61538,-6.61538zM19.84615,13.23077c-10.95673,0 -19.84615,8.88942 -19.84615,19.84615v119.07692c0,10.95673 8.88942,19.84615 19.84615,19.84615h132.30769c10.95673,0 19.84615,-8.88942 19.84615,-19.84615v-119.07692c0,-10.95673 -8.88942,-19.84615 -19.84615,-19.84615h-13.23077v13.23077c0,7.3131 -5.91767,13.23077 -13.23077,13.23077c-7.3131,0 -13.23077,-5.91767 -13.23077,-13.23077v-13.23077h-52.92308v13.23077c0,7.3131 -5.91767,13.23077 -13.23077,13.23077c-7.3131,0 -13.23077,-5.91767 -13.23077,-13.23077v-13.23077zM13.23077,59.53846h145.53846v92.61538c0,3.64363 -2.97176,6.61538 -6.61538,6.61538h-132.30769c-3.64363,0 -6.61538,-2.97176 -6.61538,-6.61538zM59.53846,79.38462v15.29808h31.83654l-25.01442,50.64904h22.94712l22.94712,-55.81731v-10.12981z"></path></g></g></g></svg>