<svg version="1.1" xmlns="http://www.w3.org/2000/svg" xmlns:xlink="http://www.w3.org/1999/xlink" viewBox="0 0 172 172"><g fill="none" fill-rule="nonzero" stroke="none" stroke-width="1" stroke-linecap="butt" stroke-linejoin="miter" stroke-miterlimit="10" stroke-dasharray="" stroke-dashoffset="0" font-family="none" font-weight="none" font-size="none" text-anchor="none" style="mix-blend-mode: normal"><path d="M0,172v-172h172v172z" fill="none"></path><g fill="#2983ff"><path d="M34.4,17.2c-2.06765,-0.02924 -3.99087,1.05709 -5.03322,2.843c-1.04236,1.78592 -1.04236,3.99474 0,5.78066c1.04236,1.78592 2.96558,2.87225 5.03322,2.843h57.33333c2.06765,0.02924 3.99087,-1.05709 5.03322,-2.843c1.04236,-1.78592 1.04236,-3.99474 0,-5.78066c-1.04236,-1.78592 -2.96558,-2.87225 -5.03322,-2.843zM17.2,40.13333c-2.06765,-0.02924 -3.99087,1.05709 -5.03322,2.843c-1.04236,1.78592 -1.04236,3.99474 0,5.78066c1.04236,1.78592 2.96558,2.87225 5.03322,2.843v97.46667h34.4v-22.93333h22.93333v22.93333h34.4v-97.46667c2.06765,0.02924 3.99087,-1.05709 5.03322,-2.843c1.04236,-1.78592 1.04236,-3.99474 0,-5.78066c-1.04236,-1.78592 -2.96558,-2.87225 -5.03322,-2.843zM28.66667,57.33333h11.46667v11.46667h-11.46667zM51.6,57.33333h22.93333v11.46667h-22.93333zM86,57.33333h11.46667v11.46667h-11.46667zM120.4,57.33333v17.2v11.46667v11.46667v11.46667v11.46667v11.46667v17.2h34.4v-91.73333zM131.86667,74.53333h11.46667v11.46667h-11.46667zM28.66667,80.26667h11.46667v11.46667h-11.46667zM51.6,80.26667h22.93333v11.46667h-22.93333zM86,80.26667h11.46667v11.46667h-11.46667zM131.86667,97.46667h11.46667v11.46667h-11.46667zM28.66667,103.2h11.46667v11.46667h-11.46667zM51.6,103.2h22.93333v11.46667h-22.93333zM86,103.2h11.46667v11.46667h-11.46667zM131.86667,120.4h11.46667v11.46667h-11.46667zM28.66667,126.13333h11.46667v11.46667h-11.46667zM86,126.13333h11.46667v11.46667h-11.46667z"></path></g></g></svg>