<svg version="1.1" xmlns="http://www.w3.org/2000/svg" xmlns:xlink="http://www.w3.org/1999/xlink" viewBox="0 0 172 172"><g fill="none" fill-rule="nonzero" stroke="none" stroke-width="1" stroke-linecap="butt" stroke-linejoin="miter" stroke-miterlimit="10" stroke-dasharray="" stroke-dashoffset="0" font-family="none" font-weight="none" font-size="none" text-anchor="none" style="mix-blend-mode: normal"><path d="M0,172v-172h172v172z" fill="none"></path><g fill="#2983ff"><path d="M86,1.24038c-39.51142,0 -71.52885,14.23858 -71.52885,31.83654c0,17.59796 32.01743,31.83654 71.52885,31.83654c39.51142,0 71.52885,-14.23858 71.52885,-31.83654c0,-17.59796 -32.01743,-31.83654 -71.52885,-31.83654zM14.47115,41.75962v24.39423c0,17.59796 32.01743,31.83654 71.52885,31.83654c39.51142,0 71.52885,-14.23858 71.52885,-31.83654v-24.39423c0,17.59796 -32.01743,31.83654 -71.52885,31.83654c-39.51142,0 -71.52885,-14.23858 -71.52885,-31.83654zM14.47115,74.83654v24.39423c0,17.59796 32.01743,31.83654 71.52885,31.83654c39.51142,0 71.52885,-14.23858 71.52885,-31.83654v-24.39423c0,17.59796 -32.01743,31.83654 -71.52885,31.83654c-39.51142,0 -71.52885,-14.23858 -71.52885,-31.83654zM14.47115,107.91346v24.39423c0,17.59796 32.01743,31.83654 71.52885,31.83654c39.51142,0 71.52885,-14.23858 71.52885,-31.83654v-24.39423c0,17.59796 -32.01743,31.83654 -71.52885,31.83654c-39.51142,0 -71.52885,-14.23858 -71.52885,-31.83654z"></path></g></g></svg>