<svg version="1.1" xmlns="http://www.w3.org/2000/svg" xmlns:xlink="http://www.w3.org/1999/xlink" viewBox="0 0 172 172"><g fill="none" fill-rule="nonzero" stroke="none" stroke-width="1" stroke-linecap="butt" stroke-linejoin="miter" stroke-miterlimit="10" stroke-dasharray="" stroke-dashoffset="0" font-family="none" font-weight="none" font-size="none" text-anchor="none" style="mix-blend-mode: normal"><path d="M0,172v-172h172v172z" fill="none"></path><g fill="#ffffff"><path d="M120.4,11.46667c-22.16507,0 -40.13333,17.96827 -40.13333,40.13333c0,26.39627 26.09294,38.67026 29.36094,41.61146c3.3368,3.00427 6.09346,9.02561 7.21146,12.84401c0.53893,1.85187 2.05881,2.79294 3.56094,2.83308c1.50787,-0.04014 3.02201,-0.98121 3.56094,-2.83308c1.11227,-3.81267 3.86892,-9.83974 7.21146,-12.84401c3.268,-2.94119 29.36094,-15.21519 29.36094,-41.61146c0,-22.16507 -17.96827,-40.13333 -40.13333,-40.13333zM23.43724,28.75625c-3.31029,-0.12691 -6.23724,2.52285 -6.23724,6.02448v98.48568c0,5.11987 3.38965,9.62528 8.30885,11.02995l35.51979,10.14531c1.33587,0.3784 2.74018,0.3784 4.07604,0l35.25104,-10.06692c1.93213,-0.5504 3.96863,-0.58812 5.9237,-0.10079l41.04036,10.26849c3.79547,0.95173 7.48021,-1.92944 7.48021,-5.84531v-59.01302l-11.46667,9.1487v42.88802l-34.4,-8.6v-18.16302l-11.46667,-16.125v34.44479l-28.66667,8.19687v-91.12864l0.06719,-0.0224c0.1032,-4.23693 0.71953,-8.33439 1.79167,-12.26172l-4.51276,1.13099c-1.94933,0.48733 -3.99703,0.44962 -5.93489,-0.10078l-35.32943,-10.10052c-0.48088,-0.13688 -0.97163,-0.21703 -1.44453,-0.23516zM120.4,40.13333c6.33533,0 11.46667,5.13133 11.46667,11.46667c0,6.33533 -5.13133,11.46667 -11.46667,11.46667c-6.33533,0 -11.46667,-5.13133 -11.46667,-11.46667c0,-6.33533 5.13133,-11.46667 11.46667,-11.46667zM28.66667,42.00339l28.66667,8.18568v91.27422l-28.66667,-8.18567z"></path></g></g></svg>