<svg version="1.1" xmlns="http://www.w3.org/2000/svg" xmlns:xlink="http://www.w3.org/1999/xlink" viewBox="0 0 172 172"><g fill="none" fill-rule="nonzero" stroke="none" stroke-width="1" stroke-linecap="butt" stroke-linejoin="miter" stroke-miterlimit="10" stroke-dasharray="" stroke-dashoffset="0" font-family="none" font-weight="none" font-size="none" text-anchor="none" style="mix-blend-mode: normal"><path d="M0,172v-172h172v172z" fill="none"></path><g fill="#2982fb"><path d="M86,17.2c-37.92928,0 -68.8,30.87072 -68.8,68.8c0,37.92928 30.87072,68.8 68.8,68.8c37.92928,0 68.8,-30.87072 68.8,-68.8c0,-37.92928 -30.87072,-68.8 -68.8,-68.8zM86,28.66667c31.73223,0 57.33333,25.6011 57.33333,57.33333c0,31.73223 -25.6011,57.33333 -57.33333,57.33333c-31.73223,0 -57.33333,-25.6011 -57.33333,-57.33333c0,-31.73223 25.6011,-57.33333 57.33333,-57.33333zM108.93333,57.33333c-0.63067,0 -1.21287,0.17487 -1.78047,0.35833l-51.5888,17.2c-2.2876,0.75107 -3.96406,2.83513 -3.96406,5.375c0,2.752 1.97182,4.93631 4.55755,5.49817l24.10911,5.96849l5.96849,24.10911c0.56187,2.58 2.74617,4.55755 5.49817,4.55755c2.53987,0 4.62393,-1.67646 5.375,-3.96406l17.2,-51.5888c0.1892,-0.5676 0.35833,-1.1498 0.35833,-1.78047c0,-3.1648 -2.56853,-5.73333 -5.73333,-5.73333z"></path></g></g></svg>