<svg version="1.1" xmlns="http://www.w3.org/2000/svg" xmlns:xlink="http://www.w3.org/1999/xlink" viewBox="0 0 172 172"><g fill="none" fill-rule="nonzero" stroke="none" stroke-width="1" stroke-linecap="butt" stroke-linejoin="miter" stroke-miterlimit="10" stroke-dasharray="" stroke-dashoffset="0" font-family="none" font-weight="none" font-size="none" text-anchor="none" style="mix-blend-mode: normal"><path d="M0,172v-172h172v172z" fill="none"></path><g fill="#2982fb"><path d="M86,11.46667c-22.09818,0 -40.13333,18.03515 -40.13333,40.13333v11.46667h-11.46667c-6.33533,0 -11.46667,5.13133 -11.46667,11.46667v68.8c0,6.33533 5.13133,11.46667 11.46667,11.46667h103.2c6.33533,0 11.46667,-5.13133 11.46667,-11.46667v-68.8c0,-6.33533 -5.13133,-11.46667 -11.46667,-11.46667h-11.46667v-11.46667c0,-21.37626 -16.99027,-38.59356 -38.09531,-39.71901c-0.64841,-0.26118 -1.33911,-0.4016 -2.03802,-0.41432zM86,22.93333c15.90235,0 28.66667,12.76431 28.66667,28.66667v11.46667h-57.33333v-11.46667c0,-15.90235 12.76431,-28.66667 28.66667,-28.66667zM86,80.26667c15.82973,0 28.66667,12.83693 28.66667,28.66667c0,15.82973 -12.83693,28.66667 -28.66667,28.66667c-15.82973,0 -28.66667,-12.83693 -28.66667,-28.66667c0,-15.82973 12.83693,-28.66667 28.66667,-28.66667zM86,91.73333c-9.50013,0 -17.2,7.69987 -17.2,17.2c0,9.50013 7.69987,17.2 17.2,17.2c9.50013,0 17.2,-7.69987 17.2,-17.2c0,-2.65453 -0.65234,-5.13196 -1.72448,-7.37942c-1.032,1.0148 -2.44366,1.64609 -4.00886,1.64609c-3.1648,0 -5.73333,-2.56853 -5.73333,-5.73333c0,-1.5652 0.63129,-2.97686 1.64609,-4.00886c-2.24747,-1.07213 -4.72489,-1.72448 -7.37942,-1.72448z"></path></g></g></svg>