<svg version="1.1" xmlns="http://www.w3.org/2000/svg" xmlns:xlink="http://www.w3.org/1999/xlink" viewBox="0 0 172 172"><g fill="none" fill-rule="nonzero" stroke="none" stroke-width="1" stroke-linecap="butt" stroke-linejoin="miter" stroke-miterlimit="10" stroke-dasharray="" stroke-dashoffset="0" font-family="none" font-weight="none" font-size="none" text-anchor="none" style="mix-blend-mode: normal"><path d="M0,172v-172h172v172z" fill="none"></path><g fill="#2983ff"><path d="M24.05313,40.85c0,3.89687 1.47813,7.525 4.3,10.34687c2.82187,2.82188 6.45,4.3 10.34687,4.3h1.6125c-0.13437,0.40312 -0.13437,0.94063 -0.13437,1.34375v75.25c0,11.15312 9.00312,20.29062 20.15625,20.29062h53.88438c11.15313,0 20.15625,-9.1375 20.15625,-20.29062v-75.25c0,-2.55313 -0.94063,-4.8375 -2.6875,-6.71875c-1.74687,-1.74687 -4.16562,-2.82188 -6.71875,-2.82188h-74.04063h-1.34375h-11.01875c-1.74687,0 -3.35937,-0.67187 -4.56875,-1.88125c-1.20938,-1.20938 -1.88125,-2.82188 -1.88125,-4.56875c0,-3.62812 2.95625,-6.45 6.45,-6.45h1.74687c0.67188,4.56875 4.56875,8.0625 9.27188,8.0625h75.38438c5.24062,0 9.40625,-4.3 9.40625,-9.40625v-5.50937c0,-5.24062 -4.3,-9.40625 -9.40625,-9.40625h-75.38438c-4.8375,0 -8.73437,3.62813 -9.40625,8.19688h-1.6125c-7.92812,0 -14.5125,6.58437 -14.5125,14.5125zM48.24063,56.84063c0,-0.5375 0.26875,-0.80625 0.40312,-0.94063c0.13437,-0.13437 0.5375,-0.40312 0.94063,-0.40312h1.34375h74.04063c0.80625,0 1.34375,0.67188 1.34375,1.34375v11.42188h-5.375c-8.19687,0 -14.78125,6.71875 -14.78125,14.91562v32.51875c0,8.19687 6.58438,14.91562 14.78125,14.91562h5.375v1.47813c0,6.71875 -5.375,12.22812 -12.09375,12.22812h-53.88437c-6.71875,0 -12.09375,-5.50937 -12.09375,-12.22812zM48.24063,27.54688c0,-0.80625 0.67188,-1.34375 1.34375,-1.34375h75.38438c0.80625,0 1.34375,0.67188 1.34375,1.34375v5.50937c0,0.80625 -0.67187,1.34375 -1.34375,1.34375h-75.38438c-0.80625,0 -1.34375,-0.67187 -1.34375,-1.34375z"></path></g></g></svg>