<svg version="1.1" xmlns="http://www.w3.org/2000/svg" xmlns:xlink="http://www.w3.org/1999/xlink" viewBox="0 0 172 172"><g fill="none" fill-rule="nonzero" stroke="none" stroke-width="1" stroke-linecap="butt" stroke-linejoin="miter" stroke-miterlimit="10" stroke-dasharray="" stroke-dashoffset="0" font-family="none" font-weight="none" font-size="none" text-anchor="none" style="mix-blend-mode: normal"><path d="M0,172v-172h172v172z" fill="none"></path><g fill="#2982fb"><path d="M114.66667,14.38932c-11.01836,0 -22.035,4.17861 -30.40235,12.54167l-57.33333,57.33333c-16.73696,16.7284 -16.73485,44.06983 0,60.80469v0.014c8.36928,8.36038 19.40748,12.58366 30.40234,12.58366c10.99486,0 22.03866,-4.23398 30.40235,-12.59765l57.33333,-57.31934v-0.014c16.72835,-16.72917 16.73199,-44.0727 0,-60.80469c-8.36735,-8.36306 -19.38399,-12.54167 -30.40235,-12.54167zM114.66667,28.62467c7.32114,0 14.63907,2.81416 20.26823,8.44043c11.25815,11.25815 11.25604,29.28618 0,40.53646l-26.875,26.875l-40.53646,-40.53646l26.875,-26.875c5.62916,-5.62627 12.94709,-8.44043 20.26823,-8.44043z"></path></g></g></svg>