<svg version="1.1" xmlns="http://www.w3.org/2000/svg" xmlns:xlink="http://www.w3.org/1999/xlink" viewBox="0 0 172 172"><g fill="none" fill-rule="nonzero" stroke="none" stroke-width="1" stroke-linecap="butt" stroke-linejoin="miter" stroke-miterlimit="10" stroke-dasharray="" stroke-dashoffset="0" font-family="none" font-weight="none" font-size="none" text-anchor="none" style="mix-blend-mode: normal"><path d="M0,172v-172h172v172z" fill="none"></path><g fill="#ffffff"><path d="M24.1875,16.125c-4.44067,0 -8.0625,3.62183 -8.0625,8.0625v123.625c0,4.44067 3.62183,8.0625 8.0625,8.0625h123.625c4.44067,0 8.0625,-3.62183 8.0625,-8.0625v-123.625c0,-4.44067 -3.62183,-8.0625 -8.0625,-8.0625zM24.1875,21.5h123.625c1.48022,0 2.6875,1.20728 2.6875,2.6875v123.625c0,1.48022 -1.20728,2.6875 -2.6875,2.6875h-123.625c-1.48022,0 -2.6875,-1.20728 -2.6875,-2.6875v-123.625c0,-1.48022 1.20728,-2.6875 2.6875,-2.6875zM37.625,32.25c-2.96045,0 -5.375,2.41455 -5.375,5.375v21.5c0,2.96045 2.41455,5.375 5.375,5.375h21.5c2.96045,0 5.375,-2.41455 5.375,-5.375v-21.5c0,-2.96045 -2.41455,-5.375 -5.375,-5.375zM72.5625,32.25c-1.49072,0 -2.6875,1.20728 -2.6875,2.6875v10.75c0,1.48022 1.19678,2.6875 2.6875,2.6875h8.0625v8.0625c0,1.48022 1.19678,2.6875 2.6875,2.6875c1.49072,0 2.6875,-1.20728 2.6875,-2.6875v-8.0625h10.75v10.75h-8.0625c-1.49072,0 -2.6875,1.20728 -2.6875,2.6875v8.0625h-13.4375c-1.49072,0 -2.6875,1.20728 -2.6875,2.6875v13.4375h-5.375v-8.0625c0,-1.48022 -1.19678,-2.6875 -2.6875,-2.6875h-10.75c-1.49072,0 -2.6875,1.20728 -2.6875,2.6875v10.75c0,1.48022 1.19678,2.6875 2.6875,2.6875h18.8125v8.0625c0,1.48022 1.19678,2.6875 2.6875,2.6875h13.4375v5.375h-8.0625c-1.49072,0 -2.6875,1.20728 -2.6875,2.6875v10.75c0,1.48022 1.19678,2.6875 2.6875,2.6875h10.75c1.49072,0 2.6875,-1.20728 2.6875,-2.6875v-21.5c0,-1.48022 -1.19678,-2.6875 -2.6875,-2.6875h-13.4375v-5.375h21.5v29.5625c0,1.48022 1.19678,2.6875 2.6875,2.6875h10.75c1.49072,0 2.6875,-1.20728 2.6875,-2.6875v-8.0625h10.75v24.1875c0,1.48022 1.19678,2.6875 2.6875,2.6875h10.75c1.49072,0 2.6875,-1.20728 2.6875,-2.6875v-10.75c0,-1.48022 -1.19678,-2.6875 -2.6875,-2.6875h-8.0625v-13.4375c0,-1.48022 -1.19678,-2.6875 -2.6875,-2.6875h-13.4375v-5.375h24.1875c1.49072,0 2.6875,-1.20728 2.6875,-2.6875v-26.875c0,-1.48022 -1.19678,-2.6875 -2.6875,-2.6875h-16.125c-1.49072,0 -2.6875,1.20728 -2.6875,2.6875c0,1.48022 1.19678,2.6875 2.6875,2.6875h13.4375v10.75h-8.0625c-1.49072,0 -2.6875,1.20728 -2.6875,2.6875v8.0625h-13.4375c-1.49072,0 -2.6875,1.20728 -2.6875,2.6875v8.0625h-5.375v-16.125h8.0625c1.49072,0 2.6875,-1.20728 2.6875,-2.6875v-10.75c0,-1.48022 -1.19678,-2.6875 -2.6875,-2.6875h-10.75c-1.49072,0 -2.6875,1.20728 -2.6875,2.6875v8.0625h-21.5v-10.75h13.4375c1.49072,0 2.6875,-1.20728 2.6875,-2.6875v-8.0625h8.0625c1.49072,0 2.6875,-1.20728 2.6875,-2.6875v-16.125c0,-1.48022 -1.19678,-2.6875 -2.6875,-2.6875h-13.4375v-8.0625c0,-1.48022 -1.19678,-2.6875 -2.6875,-2.6875zM94.0625,32.25c-1.49072,0 -2.6875,1.20728 -2.6875,2.6875c0,1.48022 1.19678,2.6875 2.6875,2.6875h5.375c1.49072,0 2.6875,-1.20728 2.6875,-2.6875c0,-1.48022 -1.19678,-2.6875 -2.6875,-2.6875zM112.875,32.25c-2.96045,0 -5.375,2.41455 -5.375,5.375v21.5c0,2.96045 2.41455,5.375 5.375,5.375h21.5c2.96045,0 5.375,-2.41455 5.375,-5.375v-21.5c0,-2.96045 -2.41455,-5.375 -5.375,-5.375zM37.625,37.625h21.5v21.5h-21.5zM75.25,37.625h5.375v5.375h-5.375zM112.875,37.625h21.5v21.5h-21.5zM45.6875,43c-1.49072,0 -2.6875,1.20728 -2.6875,2.6875v5.375c0,1.48022 1.19678,2.6875 2.6875,2.6875h5.375c1.49072,0 2.6875,-1.20728 2.6875,-2.6875v-5.375c0,-1.48022 -1.19678,-2.6875 -2.6875,-2.6875zM120.9375,43c-1.49072,0 -2.6875,1.20728 -2.6875,2.6875v5.375c0,1.48022 1.19678,2.6875 2.6875,2.6875h5.375c1.49072,0 2.6875,-1.20728 2.6875,-2.6875v-5.375c0,-1.48022 -1.19678,-2.6875 -2.6875,-2.6875zM72.5625,53.75c-1.49072,0 -2.6875,1.20728 -2.6875,2.6875v5.375c0,1.48022 1.19678,2.6875 2.6875,2.6875c1.49072,0 2.6875,-1.20728 2.6875,-2.6875v-5.375c0,-1.48022 -1.19678,-2.6875 -2.6875,-2.6875zM34.9375,69.875c-1.49072,0 -2.6875,1.20728 -2.6875,2.6875c0,1.48022 1.19678,2.6875 2.6875,2.6875h5.375c1.49072,0 2.6875,-1.20728 2.6875,-2.6875c0,-1.48022 -1.19678,-2.6875 -2.6875,-2.6875zM53.75,80.625h5.375v5.375h-5.375zM102.125,80.625h5.375v5.375h-5.375zM34.9375,83.3125c-1.49072,0 -2.6875,1.20728 -2.6875,2.6875c0,1.48022 1.19678,2.6875 2.6875,2.6875h5.375c1.49072,0 2.6875,-1.20728 2.6875,-2.6875c0,-1.48022 -1.19678,-2.6875 -2.6875,-2.6875zM129,91.375h5.375v5.375h-5.375zM34.9375,96.75c-1.49072,0 -2.6875,1.20728 -2.6875,2.6875c0,1.48022 1.19678,2.6875 2.6875,2.6875h5.375c1.49072,0 2.6875,-1.20728 2.6875,-2.6875c0,-1.48022 -1.19678,-2.6875 -2.6875,-2.6875zM51.0625,96.75c-1.49072,0 -2.6875,1.20728 -2.6875,2.6875c0,1.48022 1.19678,2.6875 2.6875,2.6875h10.75c1.49072,0 2.6875,-1.20728 2.6875,-2.6875c0,-1.48022 -1.19678,-2.6875 -2.6875,-2.6875zM37.625,107.5c-2.96045,0 -5.375,2.41455 -5.375,5.375v21.5c0,2.96045 2.41455,5.375 5.375,5.375h21.5c2.96045,0 5.375,-2.41455 5.375,-5.375v-21.5c0,-2.96045 -2.41455,-5.375 -5.375,-5.375zM137.0625,107.5c-1.49072,0 -2.6875,1.20728 -2.6875,2.6875v5.375c0,1.48022 1.19678,2.6875 2.6875,2.6875c1.49072,0 2.6875,-1.20728 2.6875,-2.6875v-5.375c0,-1.48022 -1.19678,-2.6875 -2.6875,-2.6875zM37.625,112.875h21.5v21.5h-21.5zM80.625,112.875h5.375v5.375h-5.375zM102.125,112.875h5.375v5.375h-5.375zM45.6875,118.25c-1.49072,0 -2.6875,1.20728 -2.6875,2.6875v5.375c0,1.48022 1.19678,2.6875 2.6875,2.6875h5.375c1.49072,0 2.6875,-1.20728 2.6875,-2.6875v-5.375c0,-1.48022 -1.19678,-2.6875 -2.6875,-2.6875zM72.5625,129c-1.49072,0 -2.6875,1.20728 -2.6875,2.6875v5.375c0,1.48022 1.19678,2.6875 2.6875,2.6875c1.49072,0 2.6875,-1.20728 2.6875,-2.6875v-5.375c0,-1.48022 -1.19678,-2.6875 -2.6875,-2.6875zM86,129c-1.49072,0 -2.6875,1.20728 -2.6875,2.6875v5.375c0,1.48022 1.19678,2.6875 2.6875,2.6875c1.49072,0 2.6875,-1.20728 2.6875,-2.6875v-5.375c0,-1.48022 -1.19678,-2.6875 -2.6875,-2.6875zM99.4375,129c-1.49072,0 -2.6875,1.20728 -2.6875,2.6875v5.375c0,1.48022 1.19678,2.6875 2.6875,2.6875c1.49072,0 2.6875,-1.20728 2.6875,-2.6875v-5.375c0,-1.48022 -1.19678,-2.6875 -2.6875,-2.6875zM112.875,129c-1.49072,0 -2.6875,1.20728 -2.6875,2.6875v5.375c0,1.48022 1.19678,2.6875 2.6875,2.6875c1.49072,0 2.6875,-1.20728 2.6875,-2.6875v-5.375c0,-1.48022 -1.19678,-2.6875 -2.6875,-2.6875zM129,129h5.375v5.375h-5.375z"></path></g></g></svg>